# xmcd
#
# Track frame offsets:
#	150
#	17467
#	32396
#	47132
#	70409
#	86996
#	99317
#	117829
#	141869
#	164276
#	180537
#	198788
#
# Disc length: 2878 seconds
#
# Revision: 0
# Processed by: cddbd v1.4PL0 Copyright (c) Steve Scherf et al.
# Submitted via: dBpowerAMP V4.0
#
DISCID=960b3c0c
DTITLE=Kim Cheshire - Rocking Horse To Mars
DYEAR=2001
DGENRE=Country
TTITLE0=Back To My Old Ways Again
TTITLE1=Anger And Tears
TTITLE2=Ancient History
TTITLE3=Ship of Fools
TTITLE4=Big River
TTITLE5=That's Right
TTITLE6=Gone But Not Forgotten
TTITLE7=All It Took
TTITLE8=The Good Life
TTITLE9=No Place Like Home
TTITLE10=Looks Like Trouble
TTITLE11=You Were Gone
EXTD=European release 27 May 2002
EXTT0=
EXTT1=
EXTT2=
EXTT3=
EXTT4=
EXTT5=
EXTT6=
EXTT7=
EXTT8=
EXTT9=
EXTT10=
EXTT11=
PLAYORDER=
